<svg xmlns="http://www.w3.org/2000/svg" viewBox="0 0 764.22 340.6"><g id="Layer_2" data-name="Layer 2"><g id="Layer_1-2" data-name="Layer 1"><path d="M764.22,96c-.65,13.81-3,26.59-8.32,38.8-4.59,10.56-11.13,19.85-17.88,29-3.56,4.86-7.34,9.61-9.45,15.39a18.59,18.59,0,0,0,2.4,17.68c4,5.82,8.41,11.34,12.55,17.06a76,76,0,0,1,10.85,20.6,53.37,53.37,0,0,1,3.17,19.1c-.35,8.14-2.39,15.95-8,22-6.62,7.23-15.07,9.16-24.48,6.17a54.45,54.45,0,0,1-18.87-11.07c-6.49-5.58-12.68-11.52-19.09-17.2-7.73-6.85-15.68-13.44-25-18.06-6.82-3.38-13.94-6.09-21.54-6.81a150.34,150.34,0,0,0-20.77-.84c-9.28.41-18.23,2.93-26.91,6.2A117.2,117.2,0,0,0,565,248.76c-6.28,4.58-12.34,9.48-18.32,14.44-8.4,6.95-16.67,14.06-26.66,18.71s-19.88,4.84-29.25-1.89c-5.23-3.75-8.26-9.09-10.65-14.83-2.51-6-3.5-12.34-4.07-18.83-.77-8.85.64-17.42,2.49-26,3.57-16.45,11.83-30.58,21.84-43.86a147,147,0,0,0,10.31-15.32c4.06-7.11,3.29-14.36-1.33-21-4.16-6-8.81-11.6-13.05-17.52a68.06,68.06,0,0,1-11.13-23.9c-2.48-10.42-2.51-20.8,1.67-30.91a19.28,19.28,0,0,1,17.13-11.58c10.21-.21,18.9,4,26.7,9.8s15,12.52,22.51,18.83c8.57,7.22,17.22,14.33,27.59,18.9a68.81,68.81,0,0,0,23.18,6c3,.21,6.05.38,9.08.44,11,.19,21.67-2.06,32-5.73a116.15,116.15,0,0,0,28.71-14.87c5.93-4.23,11.65-8.77,17.26-13.43,8.62-7.15,17-14.66,27.14-19.62,7.6-3.7,15.54-5.31,23.77-2.4a27.14,27.14,0,0,1,15.43,13.44,54.13,54.13,0,0,1,6.37,22.8C763.79,92.49,764.08,94.54,764.22,96Z"/><path d="M0,234.29c.14-9.18,2.89-20.48,7.47-31.33,3.18-7.51,6.78-14.85,10-22.34,3.62-8.39,4.62-17.17,1.78-25.9C16.07,145,12.08,135.47,8.7,125.77A67.14,67.14,0,0,1,4.89,98.46c.58-7.71,2.94-15.06,8.37-20.65a20,20,0,0,1,18-5.8c11.1,1.68,20.07,7.74,28.84,14.06,7.1,5.11,13.95,10.56,20.82,16a163.31,163.31,0,0,0,33,20.47c7.61,3.48,15.41,6.68,23.75,7.91a59.76,59.76,0,0,0,29.16-3,161.18,161.18,0,0,0,40-20.75c9.57-6.84,19.07-13.77,28.76-20.42a69.67,69.67,0,0,1,21.66-10.34c7.5-2,14.4-.91,20.51,4,3.21,2.6,4.88,6.27,6.31,10,3.8,9.82,3.47,19.92.63,29.76s-6.67,19.43-10,29.14a45.51,45.51,0,0,0-2.9,15.93,42.18,42.18,0,0,0,4.28,16.65C281,192.11,287,202.33,290,213.78c1.46,5.58,2.36,11.31,3.3,17a46.27,46.27,0,0,1-1.75,21.57c-3.66,11.6-9.06,17.43-20.82,19.11-4.1.59-8.17-.75-12-2.3-8.44-3.4-15.78-8.55-22.68-14.35-7.16-6-14.32-12.07-21.31-18.28A156.78,156.78,0,0,0,194.34,221,113.19,113.19,0,0,0,157,205.6,53.05,53.05,0,0,0,130.62,207c-12.58,3.78-24.53,9-35.2,16.77-6.12,4.43-11.88,9.35-17.67,14.21C71.1,243.59,64.62,249.39,58,255.05a84.17,84.17,0,0,1-19.82,13.23c-6.39,2.91-12.93,4.67-20,2.44-7.37-2.32-11.77-7.6-14.62-14.41C1,250.13-.06,243.64,0,234.29Z"/><path d="M357.79,153.15c0-12.83,2.52-25.27,5.83-37.6A79.88,79.88,0,0,0,366,103.22c.88-8.49-2-16-7.58-22.2a211.65,211.65,0,0,0-15.78-15.78c-6.85-6.15-14.39-11.54-21.09-17.84-5.72-5.38-10.42-11.84-11.41-20-1-8.29,1.85-15.34,8.67-20.35A37.6,37.6,0,0,1,337.89.21c9.24-.9,18,1.22,26.77,3.45,6,1.52,12.06,3.26,18.19,4.33a54.59,54.59,0,0,0,21.29-.92c7.82-1.73,15.56-3.9,23.44-5.24,12-2,23.49-.73,33.45,6.92a22.16,22.16,0,0,1,8.46,15.76c1,9.77-3.78,17-11.11,22.71-8.05,6.31-16.44,12.19-24.31,18.71C427.53,71.34,421.51,77.4,417,84.67a28.36,28.36,0,0,0-4.45,14.59c-.21,7,1.91,13.52,3.3,20.21,1.56,7.47,2.9,15,4.14,22.52a63.8,63.8,0,0,1,.85,10.33,87.71,87.71,0,0,1-.84,11.9c-1,6.75-1.9,13.54-3.46,20.17-2.38,10.07-6.61,19.43-13.55,27.22-3.37,3.77-7.81,6.62-13,6.76-2.79.08-5.8-1.06-8.39-2.31-4.26-2.05-7.23-5.64-9.9-9.54-5.85-8.57-9.17-18.17-11.08-28.2-1.57-8.28-2.26-16.72-3.35-25.09Z"/><path d="M389.55,340.6c-10.08-.24-18.52-3.38-25.23-10.16-5.53-5.59-8.52-12.59-9.64-20.44-1.45-10.18.71-19.67,5.31-28.62s10.88-16.58,20.23-21.2c7.06-3.5,13.75-2.7,20.27,1.26,13.14,8,20,20.16,23,34.84,2.62,12.87-.56,24.43-9.19,34.1-4.8,5.38-11.45,8.37-18.67,9.63C393.45,340.39,391.22,340.44,389.55,340.6Z"/></g></g></svg>