<?xml version="1.0" encoding="utf-8"?>
<!-- Generator: Adobe Illustrator 25.3.1, SVG Export Plug-In . SVG Version: 6.00 Build 0)  -->
<svg version="1.1" id="Layer_1" xmlns="http://www.w3.org/2000/svg" xmlns:xlink="http://www.w3.org/1999/xlink" x="0px" y="0px"
	 viewBox="0 0 764.2 340.6" style="enable-background:new 0 0 764.2 340.6;" xml:space="preserve">
<style type="text/css">
	.st0{fill:#333333;}
</style>
<g id="Layer_2_1_">
	<g id="Layer_1-2">
		<path class="st0" d="M764.2,96c-0.7,13.8-3,26.6-8.3,38.8c-4.6,10.6-11.1,19.9-17.9,29c-3.6,4.9-7.3,9.6-9.5,15.4
			c-2.3,5.9-1.4,12.6,2.4,17.7c4,5.8,8.4,11.3,12.5,17.1c4.7,6.3,8.3,13.2,10.8,20.6c2.2,6.1,3.3,12.6,3.2,19.1
			c-0.3,8.1-2.4,16-8,22c-6.6,7.2-15.1,9.2-24.5,6.2c-7-2.4-13.4-6.1-18.9-11.1c-6.5-5.6-12.7-11.5-19.1-17.2
			c-7.7-6.9-15.7-13.4-25-18.1c-6.8-3.4-13.9-6.1-21.5-6.8c-6.9-0.8-13.8-1-20.8-0.8c-9.3,0.4-18.2,2.9-26.9,6.2
			c-9.9,3.6-19.3,8.6-27.9,14.7c-6.3,4.6-12.3,9.5-18.3,14.4c-8.4,7-16.7,14.1-26.7,18.7s-19.9,4.8-29.2-1.9
			c-5.2-3.8-8.3-9.1-10.6-14.8c-2.5-6-3.5-12.3-4.1-18.8c-0.8-8.9,0.6-17.4,2.5-26c3.6-16.4,11.8-30.6,21.8-43.9
			c3.8-4.9,7.2-10,10.3-15.3c4.1-7.1,3.3-14.4-1.3-21c-4.2-6-8.8-11.6-13-17.5c-5.2-7.2-9-15.3-11.1-23.9
			c-2.5-10.4-2.5-20.8,1.7-30.9c3-6.9,9.7-11.4,17.1-11.6c10.2-0.2,18.9,4,26.7,9.8s15,12.5,22.5,18.8c8.6,7.2,17.2,14.3,27.6,18.9
			c7.3,3.3,15.2,5.4,23.2,6c3,0.2,6,0.4,9.1,0.4c11,0.2,21.7-2.1,32-5.7c10.2-3.6,19.9-8.6,28.7-14.9c5.9-4.2,11.7-8.8,17.3-13.4
			c8.6-7.2,17-14.7,27.1-19.6c7.6-3.7,15.5-5.3,23.8-2.4c6.7,2.3,12.2,7.1,15.4,13.4c3.8,7,6,14.8,6.4,22.8
			C763.8,92.5,764.1,94.5,764.2,96z"/>
		<path class="st0" d="M0,234.3c0.1-9.2,2.9-20.5,7.5-31.3c3.2-7.5,6.8-14.9,10-22.3c3.6-8.4,4.6-17.2,1.8-25.9
			c-3.2-9.7-7.2-19.2-10.6-29c-3.1-8.7-4.4-18-3.8-27.3c0.6-7.7,2.9-15.1,8.4-20.7c4.6-4.8,11.4-7,18-5.8
			c11.1,1.7,20.1,7.7,28.8,14.1c7.1,5.1,13.9,10.6,20.8,16c10.1,8.1,21.2,15,33,20.5c7.6,3.5,15.4,6.7,23.8,7.9
			c9.8,1.4,19.8,0.4,29.2-3c14.2-5,27.7-12,40-20.8c9.6-6.8,19.1-13.8,28.8-20.4c6.6-4.7,13.9-8.2,21.7-10.3c7.5-2,14.4-0.9,20.5,4
			c3.2,2.6,4.9,6.3,6.3,10c3.8,9.8,3.5,19.9,0.6,29.8s-6.7,19.4-10,29.1c-1.9,5.1-2.9,10.5-2.9,15.9c0.3,5.8,1.7,11.5,4.3,16.6
			c4.9,10.7,10.9,20.9,13.9,32.4c1.5,5.6,2.4,11.3,3.3,17c1.1,7.2,0.5,14.6-1.8,21.6c-3.7,11.6-9.1,17.4-20.8,19.1
			c-4.1,0.6-8.2-0.8-12-2.3c-8.4-3.4-15.8-8.5-22.7-14.4c-7.2-6-14.3-12.1-21.3-18.3c-6.4-5.7-13.2-10.9-20.4-15.5
			c-11.4-7.3-24.1-12.5-37.3-15.4c-8.8-1.8-17.8-1.3-26.4,1.4c-12.6,3.8-24.5,9-35.2,16.8c-6.1,4.4-11.9,9.4-17.7,14.2
			c-6.7,5.6-13.1,11.4-19.8,17.1c-5.9,5.3-12.6,9.8-19.8,13.2c-6.4,2.9-12.9,4.7-20,2.4c-7.4-2.3-11.8-7.6-14.6-14.4
			C1,250.1-0.1,243.6,0,234.3z"/>
		<path class="st0" d="M357.8,153.1c0-12.8,2.5-25.3,5.8-37.6c1.1-4,1.9-8.2,2.4-12.3c0.9-8.5-2-16-7.6-22.2
			c-5-5.5-10.2-10.8-15.8-15.8c-6.9-6.2-14.4-11.5-21.1-17.8c-5.7-5.4-10.4-11.8-11.4-20c-1-8.3,1.9-15.3,8.7-20.4
			c5.6-4,12.2-6.3,19.1-6.8c9.2-0.9,18,1.2,26.8,3.5c6,1.5,12.1,3.3,18.2,4.3c7.1,1.1,14.3,0.8,21.3-0.9c7.8-1.7,15.6-3.9,23.4-5.2
			c12-2,23.5-0.7,33.5,6.9c4.9,3.8,8,9.6,8.5,15.8c1,9.8-3.8,17-11.1,22.7c-8,6.3-16.4,12.2-24.3,18.7c-6.5,5.4-12.6,11.5-17.1,18.7
			c-2.8,4.4-4.3,9.4-4.5,14.6c-0.2,7,1.9,13.5,3.3,20.2c1.6,7.5,2.9,15,4.1,22.5c0.6,3.4,0.8,6.9,0.9,10.3c0,4-0.3,8-0.8,11.9
			c-1,6.8-1.9,13.5-3.5,20.2c-2.4,10.1-6.6,19.4-13.5,27.2c-3.4,3.8-7.8,6.6-13,6.8c-2.8,0.1-5.8-1.1-8.4-2.3
			c-4.3-2.1-7.2-5.6-9.9-9.5c-5.9-8.6-9.2-18.2-11.1-28.2c-1.6-8.3-2.3-16.7-3.4-25.1L357.8,153.1z"/>
		<path class="st0" d="M389.5,340.6c-10.1-0.2-18.5-3.4-25.2-10.2c-5.5-5.6-8.5-12.6-9.6-20.4c-1.5-10.2,0.7-19.7,5.3-28.6
			s10.9-16.6,20.2-21.2c7.1-3.5,13.8-2.7,20.3,1.3c13.1,8,20,20.2,23,34.8c2.6,12.9-0.6,24.4-9.2,34.1c-4.8,5.4-11.5,8.4-18.7,9.6
			C393.5,340.4,391.2,340.4,389.5,340.6z"/>
	</g>
</g>
</svg>
