{
	"asset":{
		"generator":"Khronos glTF Blender I/O v3.5.30",
		"version":"2.0"
	},
	"scene":0,
	"scenes":[
		{
			"name":"Scene",
			"nodes":[
				0
			]
		}
	],
	"nodes":[
		{
			"mesh":0,
			"name":"121.mrc gaussian surface",
			"rotation":[
				0.6532815098762512,
				0.27059805393218994,
				-0.27059805393218994,
				0.6532815098762512
			],
			"scale":[
				0.17272698879241943,
				0.17272700369358063,
				0.17272700369358063
			]
		}
	],
	"materials":[
		{
			"doubleSided":true,
			"name":"Material.001",
			"pbrMetallicRoughness":{
				"baseColorFactor":[
					0.800000011920929,
					0.800000011920929,
					0.800000011920929,
					1
				],
				"metallicFactor":0.7727272510528564,
				"roughnessFactor":0.663636326789856
			}
		}
	],
	"meshes":[
		{
			"name":"121.mrc gaussian surface",
			"primitives":[
				{
					"attributes":{
						"POSITION":0,
						"NORMAL":1
					},
					"indices":2,
					"material":0
				}
			]
		}
	],
	"accessors":[
		{
			"bufferView":0,
			"componentType":5126,
			"count":51055,
			"max":[
				153.08541870117188,
				121.92151641845703,
				117.2785415649414
			],
			"min":[
				-79.60263061523438,
				-107.30673217773438,
				-119.9047622680664
			],
			"type":"VEC3"
		},
		{
			"bufferView":1,
			"componentType":5126,
			"count":51055,
			"type":"VEC3"
		},
		{
			"bufferView":2,
			"componentType":5123,
			"count":280680,
			"type":"SCALAR"
		}
	],
	"bufferViews":[
		{
			"buffer":0,
			"byteLength":612660,
			"byteOffset":0,
			"target":34962
		},
		{
			"buffer":0,
			"byteLength":612660,
			"byteOffset":612660,
			"target":34962
		},
		{
			"buffer":0,
			"byteLength":561360,
			"byteOffset":1225320,
			"target":34963
		}
	],
	"buffers":[
		{
			"byteLength":1786680,
			"uri":"data:application/octet-stream;base64,"
		}
	]
}
